<?xml version="1.0" encoding="utf-8"?>
<!-- Generator: Adobe Illustrator 27.6.1, SVG Export Plug-In . SVG Version: 6.00 Build 0)  -->
<svg version="1.1" id="Layer_1" xmlns="http://www.w3.org/2000/svg" xmlns:xlink="http://www.w3.org/1999/xlink" x="0px" y="0px"
	 viewBox="0 0 206 44" style="enable-background:new 0 0 206 44;" xml:space="preserve">
<style type="text/css">
	.st0{fill:#FDF84C;}
</style>
<g>
	<polygon class="st0" points="89,0 77.2,0 91.2,22 77.2,44 89,44 103,22 	"/>
	<polygon class="st0" points="77.2,0 65.5,0 51.5,22 65.5,44 77.2,44 63.3,22 	"/>
	<polygon class="st0" points="0,0 14,22 0,44 11.8,44 25.7,22 11.8,0 	"/>
	<polygon class="st0" points="51.5,0 39.7,0 25.7,22 39.7,44 51.5,44 37.5,22 	"/>
</g>
<g>
	<polygon class="st0" points="192,0 180.2,0 194.2,22 180.2,44 192,44 206,22 	"/>
	<polygon class="st0" points="180.2,0 168.4,0 154.5,22 168.4,44 180.2,44 166.2,22 	"/>
	<polygon class="st0" points="103,0 116.9,22 103,44 114.8,44 128.7,22 114.8,0 	"/>
	<polygon class="st0" points="154.5,0 142.7,0 128.7,22 142.7,44 154.5,44 140.5,22 	"/>
</g>
</svg>
