<?xml version="1.0" encoding="utf-8"?>
<!-- Generator: Adobe Illustrator 27.6.1, SVG Export Plug-In . SVG Version: 6.00 Build 0)  -->
<svg version="1.1" id="Layer_1" xmlns="http://www.w3.org/2000/svg" xmlns:xlink="http://www.w3.org/1999/xlink" x="0px" y="0px"
	 viewBox="0 0 97.5 29.4" style="enable-background:new 0 0 97.5 29.4;" xml:space="preserve">
<g>
	<path d="M51.8,18.9c-2.4,0-4.2-1.6-4.2-4.5c0-2.9,1.9-4.5,4.2-4.5c2.4,0,4.2,1.6,4.2,4.5S54.2,18.9,51.8,18.9z M51.8,12
		c-1.2,0-1.8,0.9-1.8,2.4s0.6,2.4,1.8,2.4s1.8-0.9,1.8-2.4S53,12,51.8,12z"/>
	<path d="M64.4,15.3h-4.1v-1.8h4.1V15.3z"/>
	<path d="M68.2,10h7.6v1.9h-2.6v6.8h-2.3v-6.8h-2.6V10z"/>
	<path d="M79.5,10h6.3v1.9h-3.9v1.5h3.6v1.9h-3.6v1.5h3.9v1.9h-6.3V10z"/>
	<path d="M97.5,18.7h-2l-3.2-4.6h-0.1v4.6H90V10h2l3.1,4.6h0.1V10h2.4V18.7z"/>
</g>
<g>
	<polygon points="9.3,0 17.2,0 7.9,14.7 17.2,29.4 9.3,29.4 0,14.7 	"/>
	<polygon points="17.2,0 25.1,0 34.4,14.7 25.1,29.4 17.2,29.4 26.5,14.7 	"/>
</g>
</svg>
