<?xml version="1.0" encoding="utf-8"?>
<!-- Generator: Adobe Illustrator 27.6.1, SVG Export Plug-In . SVG Version: 6.00 Build 0)  -->
<svg version="1.1" id="Layer_1" xmlns="http://www.w3.org/2000/svg" xmlns:xlink="http://www.w3.org/1999/xlink" x="0px" y="0px"
	 viewBox="0 0 131.9 29.4" style="enable-background:new 0 0 131.9 29.4;" xml:space="preserve">
<style type="text/css">
	.st0{fill:#FFFFFF;}
</style>
<polygon class="st0" points="9.3,0 17.2,0 7.9,14.7 17.2,29.4 9.3,29.4 0,14.7 "/>
<polygon class="st0" points="17.2,0 25.1,0 34.4,14.7 25.1,29.4 17.2,29.4 26.5,14.7 "/>
<g>
	<path class="st0" d="M86.2,18.9c-2.4,0-4.2-1.6-4.2-4.5s1.9-4.5,4.2-4.5c2.4,0,4.2,1.6,4.2,4.5S88.6,18.9,86.2,18.9z M86.2,12
		c-1.2,0-1.8,0.9-1.8,2.4s0.6,2.4,1.8,2.4s1.8-0.9,1.8-2.4S87.4,12,86.2,12z"/>
	<path class="st0" d="M98.8,15.3h-4.1v-1.8h4.1V15.3z"/>
	<path class="st0" d="M102.7,10h7.6v1.9h-2.6v6.8h-2.3v-6.8h-2.6L102.7,10L102.7,10z"/>
	<path class="st0" d="M113.9,10h6.3v1.9h-3.9v1.5h3.6v1.9h-3.6v1.5h3.9v1.9h-6.3V10z"/>
	<path class="st0" d="M131.9,18.7h-2l-3.2-4.6h-0.1v4.6h-2.4V10h2l3.1,4.6h0.1V10h2.4L131.9,18.7L131.9,18.7z"/>
</g>
<g>
	<polygon class="st0" points="68.8,0 59.5,14.7 68.8,29.4 60.9,29.4 51.6,14.7 60.9,0 	"/>
	<polygon class="st0" points="34.4,0 42.3,0 51.6,14.7 42.3,29.4 34.4,29.4 43.7,14.7 	"/>
</g>
</svg>
