<?xml version="1.0" encoding="utf-8"?>
<!-- Generator: Adobe Illustrator 27.6.1, SVG Export Plug-In . SVG Version: 6.00 Build 0)  -->
<svg version="1.1" id="Layer_1" xmlns="http://www.w3.org/2000/svg" xmlns:xlink="http://www.w3.org/1999/xlink" x="0px" y="0px"
	 viewBox="0 0 50 9" style="enable-background:new 0 0 50 9;" xml:space="preserve">
<style type="text/css">
	.st0{fill:#FFFFFF;}
</style>
<g>
	<path class="st0" d="M4.2,9C1.9,9,0,7.4,0,4.5S1.9,0,4.2,0c2.4,0,4.2,1.6,4.2,4.5S6.6,9,4.2,9z M4.2,2.1C3,2.1,2.4,3,2.4,4.5
		S3,6.9,4.2,6.9S6,6,6,4.5S5.4,2.1,4.2,2.1z"/>
	<path class="st0" d="M16.8,5.4h-4.1V3.6h4.1V5.4z"/>
	<path class="st0" d="M20.7,0.1h7.6V2h-2.6v6.8h-2.3V2h-2.6V0.1H20.7z"/>
	<path class="st0" d="M31.9,0.1h6.3V2h-3.9v1.5h3.6v1.9h-3.6v1.5h3.9v1.9h-6.3C31.9,8.8,31.9,0.1,31.9,0.1z"/>
	<path class="st0" d="M50,8.8h-2l-3.2-4.6h-0.1v4.6h-2.4V0.1h2l3.1,4.6h0.1V0.1H50V8.8z"/>
</g>
</svg>
